<?xml version="1.0" standalone="no"?>
<!DOCTYPE svg PUBLIC "-//W3C//DTD SVG 20010904//EN"
 "http://www.w3.org/TR/2001/REC-SVG-20010904/DTD/svg10.dtd">
<svg version="1.0" xmlns="http://www.w3.org/2000/svg"
 width="260.000000pt" height="260.000000pt" viewBox="0 0 260.000000 260.000000"
 preserveAspectRatio="xMidYMid meet">
<metadata>
Created by potrace 1.14, written by Peter Selinger 2001-2017
</metadata>
<g transform="translate(0.000000,260.000000) scale(0.100000,-0.100000)"
fill="#000000" stroke="none">
<path d="M335 2232 c-5 -4 -16 -18 -23 -31 -63 -112 -95 -165 -102 -171 -15
-12 -58 -100 -49 -100 6 0 8 -4 5 -9 -4 -5 -3 -11 2 -13 10 -4 87 -122 83
-127 -1 -2 1 -7 7 -10 12 -8 276 -402 280 -418 2 -7 8 -13 13 -13 6 0 7 -4 4
-10 -3 -5 -2 -10 2 -10 5 0 17 -15 28 -32 10 -18 25 -39 32 -46 7 -7 13 -19
13 -27 0 -7 7 -15 15 -19 8 -3 14 -9 13 -13 -2 -4 9 -24 25 -44 15 -20 27 -41
27 -47 0 -6 3 -12 8 -14 11 -5 72 -95 72 -107 0 -5 8 -15 18 -20 9 -6 13 -11
9 -11 -5 0 -2 -7 5 -15 29 -32 38 -45 38 -53 0 -4 9 -18 20 -30 12 -12 17 -22
13 -22 -4 0 -3 -4 2 -8 12 -8 125 -179 126 -189 0 -5 7 -12 15 -16 8 -4 14
-15 14 -22 0 -8 5 -15 10 -15 6 0 10 -7 10 -15 0 -8 4 -15 9 -15 5 0 14 -13
21 -30 7 -16 16 -30 21 -30 5 0 11 -11 15 -24 3 -14 12 -27 20 -30 8 -3 14
-12 14 -19 0 -34 28 -40 193 -41 136 -1 165 2 178 15 9 9 40 58 69 110 67 119
86 152 122 214 16 28 39 70 51 95 12 25 25 47 29 50 4 3 21 33 39 65 17 33 36
63 41 66 5 3 9 8 8 10 -4 8 24 59 32 59 4 0 7 3 6 8 -3 12 25 62 34 62 5 0 7
4 3 9 -3 5 0 15 7 23 7 7 27 39 43 71 17 31 34 57 39 57 5 0 6 3 3 6 -4 4 2
19 13 34 11 16 20 30 20 33 0 2 23 44 51 93 29 49 65 114 81 144 17 30 37 63
46 73 8 9 11 17 6 17 -5 0 -4 4 2 8 5 4 18 23 27 42 10 19 29 53 42 75 14 22
32 55 39 73 8 17 20 32 27 32 7 0 9 3 6 6 -3 4 -1 16 5 27 8 16 7 23 -3 31 -8
6 -23 28 -34 49 -11 20 -23 37 -27 37 -5 0 -8 4 -8 9 0 5 -23 46 -51 90 l-52
81 -956 0 c-526 0 -960 -4 -966 -8z m1804 -124 c-16 -26 -25 -48 -21 -48 4 0
2 -4 -3 -8 -14 -10 -71 -105 -80 -131 -3 -12 -11 -21 -16 -21 -5 0 -9 -5 -9
-11 0 -7 -22 -49 -50 -95 -27 -46 -50 -85 -50 -87 0 -4 -63 -114 -101 -177
-30 -51 -125 -217 -128 -225 -2 -5 -7 -12 -10 -15 -3 -3 -14 -21 -25 -40 -46
-86 -70 -126 -84 -142 -8 -10 -12 -18 -8 -18 4 0 -2 -12 -13 -26 -12 -15 -21
-33 -21 -40 0 -23 -18 -16 -37 14 -10 15 -20 29 -23 32 -9 8 -40 59 -40 65 0
3 -6 13 -15 21 -14 14 -12 22 20 77 20 34 44 78 53 97 9 19 20 37 25 38 4 2 5
8 1 13 -3 5 0 9 5 9 6 0 11 6 11 14 0 7 7 19 15 26 8 7 12 16 9 21 -3 5 -1 9
4 9 5 0 16 17 26 38 22 50 48 96 56 102 4 3 13 22 21 43 7 20 17 37 21 37 4 0
7 3 6 8 -3 10 32 75 46 84 6 4 8 8 3 8 -4 0 3 17 16 38 13 20 32 56 42 80 10
23 22 42 26 42 4 0 9 9 12 20 5 20 0 20 -770 20 -688 0 -774 2 -763 15 7 8 9
15 6 15 -4 0 0 7 8 16 9 8 16 22 16 30 0 8 4 14 9 14 5 0 14 14 21 30 7 17 17
30 22 30 5 0 7 4 4 9 -4 5 0 11 6 14 7 2 412 4 899 4 l887 0 -29 -49z m132
-45 c13 -21 27 -39 31 -41 4 -2 8 -10 8 -18 0 -8 5 -14 11 -14 5 0 7 -4 4 -10
-3 -5 -1 -10 4 -10 21 0 11 -29 -39 -115 -27 -48 -50 -90 -50 -95 0 -5 -3 -10
-7 -12 -5 -1 -21 -29 -38 -60 -16 -32 -34 -58 -38 -58 -5 0 -6 -4 -3 -9 3 -5
-1 -14 -9 -21 -8 -7 -15 -17 -15 -23 0 -5 -20 -43 -44 -84 -25 -40 -48 -82
-51 -93 -4 -11 -11 -20 -16 -20 -5 0 -9 -5 -9 -10 0 -9 -132 -249 -160 -290
-6 -8 -15 -27 -21 -42 -6 -16 -14 -28 -18 -28 -5 0 -15 -17 -24 -37 -9 -21
-28 -58 -43 -83 -38 -64 -70 -119 -90 -160 -10 -19 -20 -37 -23 -40 -9 -8 -51
-83 -64 -113 -6 -15 -15 -27 -19 -27 -4 0 -8 -6 -8 -12 -1 -17 -39 -66 -40
-50 0 7 -5 18 -11 25 -5 7 -28 41 -51 77 -70 111 -93 145 -100 148 -5 2 -8 8
-8 14 0 5 -16 33 -35 62 -19 29 -35 58 -35 63 0 6 -7 13 -15 17 -8 3 -15 12
-15 19 0 8 -9 22 -20 32 -11 10 -20 22 -20 28 0 12 -110 180 -124 189 -6 4 -8
8 -3 8 8 0 -62 111 -78 122 -5 4 -6 8 -2 8 7 0 0 11 -31 45 -7 8 -11 15 -7 15
3 0 -5 15 -19 33 -15 19 -26 39 -26 45 0 7 -4 12 -9 12 -5 0 -14 14 -21 30 -7
17 -16 30 -20 30 -4 0 -13 14 -20 30 -7 17 -17 30 -22 30 -5 0 -6 5 -3 10 3 6
3 10 -2 10 -4 0 -13 11 -20 25 l-11 25 109 0 108 0 17 -32 c9 -18 20 -35 23
-38 3 -3 31 -43 61 -90 30 -47 58 -87 63 -88 4 -2 5 -8 1 -13 -3 -5 -1 -9 5
-9 5 0 13 -9 16 -20 3 -11 12 -26 18 -32 20 -22 127 -187 127 -197 0 -5 4 -11
8 -13 5 -1 46 -60 91 -130 46 -71 87 -128 92 -128 5 0 14 10 20 23 16 36 34
65 55 89 12 13 13 18 4 13 -11 -6 -10 -3 3 12 9 11 17 25 17 31 0 6 8 16 18
21 9 6 14 11 10 11 -4 0 22 50 57 111 36 62 65 115 65 119 0 5 3 10 8 12 4 2
15 19 25 38 32 62 62 115 68 120 7 6 34 54 51 93 7 15 16 27 20 27 4 0 8 4 8
8 0 4 36 71 80 148 44 76 80 146 80 154 0 13 1 13 10 0 8 -13 10 -12 10 3 0
18 28 76 41 87 3 3 8 10 10 15 11 27 65 115 71 115 3 0 17 -17 29 -37z m-589
-172 c8 -1 -70 -140 -80 -142 -4 -1 -232 -2 -507 -3 -275 0 -499 -3 -498 -6 5
-18 39 -70 46 -70 4 0 7 -5 7 -12 0 -6 11 -26 25 -44 14 -18 25 -35 25 -38 0
-7 60 -95 77 -113 6 -7 15 -22 18 -33 3 -11 11 -20 16 -20 6 0 8 -4 5 -9 -4
-5 -3 -11 2 -13 4 -1 22 -27 40 -56 18 -30 37 -59 43 -65 22 -26 109 -168 109
-178 0 -5 4 -7 10 -4 6 3 10 1 10 -5 0 -9 63 -115 87 -145 4 -5 14 -22 22 -37
8 -16 18 -28 23 -28 4 0 8 -4 8 -10 0 -9 146 -237 170 -267 6 -7 15 -24 22
-38 6 -14 14 -25 18 -25 4 0 13 -14 20 -30 7 -17 17 -30 22 -30 5 0 7 -4 4 -9
-4 -5 -50 -8 -103 -8 -76 2 -97 5 -101 17 -3 8 -8 17 -12 20 -4 3 -16 19 -26
36 -11 17 -53 83 -95 145 -41 63 -111 168 -155 234 -43 66 -84 126 -91 133 -7
7 -13 17 -13 21 0 4 -9 18 -20 31 -11 13 -20 29 -20 37 0 7 -4 13 -8 13 -5 0
-17 16 -28 35 -10 19 -23 35 -28 35 -5 0 -7 3 -3 6 5 6 0 15 -31 49 -7 8 -10
15 -5 15 4 0 0 5 -10 11 -9 6 -15 14 -12 18 2 5 -4 16 -15 26 -11 10 -20 24
-20 32 0 7 -4 13 -10 13 -5 0 -10 5 -10 10 0 6 -5 16 -11 23 -5 7 -47 68 -92
137 -45 69 -85 127 -89 128 -4 2 -8 8 -8 13 0 6 -19 38 -43 72 -24 34 -53 78
-64 97 l-22 35 697 -1 c383 -1 700 -2 704 -3z m-145 -293 c-12 -24 -25 -45
-28 -48 -3 -3 -21 -34 -40 -70 -18 -36 -38 -68 -44 -72 -5 -4 -6 -8 -1 -8 5 0
2 -8 -6 -17 -8 -10 -27 -43 -43 -73 -15 -30 -29 -57 -31 -59 -5 -5 -54 51 -54
62 0 5 -11 23 -25 41 -14 18 -25 36 -25 40 0 4 -6 14 -12 21 -31 35 -38 45
-31 45 4 0 3 4 -2 8 -6 4 -26 32 -45 62 -19 30 -37 57 -41 60 -3 3 -11 15 -18
28 l-12 22 240 0 239 0 -21 -42z"/>
</g>
</svg>
